<svg with="150" height="43" version="1.1" viewBox="0.0 0.0 347.8608923884514 100.0" fill="none" stroke="none" stroke-linecap="square" stroke-miterlimit="10" xmlns:xlink="http://www.w3.org/1999/xlink" xmlns="http://www.w3.org/2000/svg"><clipPath id="p.0"><path d="m0 0l347.8609 0l0 100.0l-347.8609 0l0 -100.0z" clip-rule="nonzero"/></clipPath><g clip-path="url(#p.0)"><path fill="#000000" fill-opacity="0.0" d="m0 0l347.8609 0l0 100.0l-347.8609 0z" fill-rule="evenodd"/><path fill="#000000" fill-opacity="0.0" d="m39.950695 78.35308l0 0c-18.198381 0 -32.951084 -15.303104 -32.951084 -34.18044l0 0c0 -18.877337 14.752703 -34.180443 32.951084 -34.180443l0 0c8.739174 0 17.12041 3.601143 23.299938 10.011219c6.1795273 6.410076 9.651154 15.104006 9.651154 24.169222l0 0c0 9.065216 -3.4716263 17.759144 -9.651154 24.169224l9.651154 0l0 10.011215z" fill-rule="evenodd"/><path stroke="#000000" stroke-width="4.181102362204724" stroke-linejoin="round" stroke-linecap="butt" d="m39.950695 78.35308l0 0c-18.198381 0 -32.951084 -15.303104 -32.951084 -34.18044l0 0c0 -18.877337 14.752703 -34.180443 32.951084 -34.180443l0 0c8.739174 0 17.12041 3.601143 23.299938 10.011219c6.1795273 6.410076 9.651154 15.104006 9.651154 24.169222l0 0c0 9.065216 -3.4716263 17.759144 -9.651154 24.169224l9.651154 0l0 10.011215z" fill-rule="evenodd"/><path fill="#000000" fill-opacity="0.0" d="m240.87907 78.35125l26.601273 0l0 0c14.691437 0 26.601227 -15.303101 26.601227 -34.18044c0 -18.877335 -11.90979 -34.18044 -26.601227 -34.18044l-26.601273 0z" fill-rule="evenodd"/><path stroke="#000000" stroke-width="4.181102362204724" stroke-linejoin="round" stroke-linecap="butt" d="m240.87907 78.35125l26.601273 0l0 0c14.691437 0 26.601227 -15.303101 26.601227 -34.18044c0 -18.877335 -11.90979 -34.18044 -26.601227 -34.18044l-26.601273 0z" fill-rule="evenodd"/><path fill="#000000" d="m77.70713 51.089687c-0.47901154 0 -0.8781891 0.016635895 -1.1975327 0.04989624c-0.31933594 0.026615143 -0.578804 0.08649063 -0.778389 0.17963028c-0.19959259 0.08649063 -0.33597565 0.18628311 -0.4091568 0.29938507c-0.06652832 0.10644531 -0.09980011 0.23950577 -0.09980011 0.39917755l0 16.346298c0 1.9559708 0.16300201 3.6192017 0.4889984 4.9897156c0.33264923 1.3638535 0.8781891 2.5613785 1.6366196 3.5925903c0.7584381 1.0245514 1.749733 1.8362122 2.9738693 2.4349823c1.2307968 0.5987625 2.7443466 0.8981476 4.540642 0.8981476c1.5368347 0 3.0537033 -0.3891983 4.550621 -1.1675949c1.4969101 -0.7783966 3.0137863 -2.0158463 4.5506134 -3.712349l0 3.5626602c0 0.15966797 0.029937744 0.29605103 0.08981323 0.4091568c0.059883118 0.10644531 0.17298126 0.19958496 0.33930206 0.27941895c0.17298126 0.079833984 0.40250397 0.1397171 0.6885834 0.1796341c0.29273224 0.039916992 0.66861725 0.05987549 1.1276703 0.05987549c0.41913605 0 0.7717438 -0.019958496 1.0578232 -0.05987549c0.29273224 -0.039916992 0.5289078 -0.09980011 0.70854187 -0.1796341c0.17962646 -0.079833984 0.30270386 -0.17297363 0.36923218 -0.27941895c0.07318878 -0.113105774 0.10977936 -0.24948883 0.10977936 -0.4091568l0 -26.94445c0 -0.15967178 -0.046569824 -0.29273224 -0.1397171 -0.39917755c-0.08648682 -0.11310196 -0.21954346 -0.21289444 -0.39917755 -0.29938507c-0.17962646 -0.09313965 -0.4291153 -0.15301514 -0.74845123 -0.17963028c-0.31934357 -0.033260345 -0.7185211 -0.04989624 -1.1975327 -0.04989624c-0.49897003 0 -0.9048004 0.016635895 -1.2174911 0.04989624c-0.30603027 0.026615143 -0.5588455 0.08649063 -0.7584381 0.17963028c-0.19958496 0.08649063 -0.33596802 0.18628311 -0.4091568 0.29938507c-0.06652832 0.10644531 -0.09979248 0.23950577 -0.09979248 0.39917755l0 18.831177c-1.3771591 1.6965027 -2.681137 2.9838486 -3.911934 3.8620377c-1.224144 0.8781891 -2.4549408 1.3172836 -3.6923904 1.3172836c-0.9580231 0 -1.7962952 -0.18296051 -2.5148163 -0.5488663c-0.7185135 -0.37257385 -1.3139496 -0.8915024 -1.7863159 -1.5567932c-0.46570587 -0.6719513 -0.81497955 -1.4802856 -1.0478363 -2.425003c-0.22619629 -0.95137024 -0.33930206 -2.2154312 -0.33930206 -3.792183l0 -15.687653c0 -0.15967178 -0.039916992 -0.29273224 -0.11975098 -0.39917755c-0.079833984 -0.11310196 -0.21622467 -0.21289444 -0.4091568 -0.29938507c-0.1862793 -0.09313965 -0.43909454 -0.15301514 -0.7584381 -0.17963028c-0.31934357 -0.033260345 -0.7185211 -0.04989624 -1.1975327 -0.04989624z" fill-rule="evenodd"/><path fill="#000000" d="m122.97381 66.68753l0 5.7182083c-1.2174911 1.3572083 -2.3817596 2.3651276 -3.4927979 3.0237656c-1.104393 0.65864563 -2.305252 0.98796844 -3.6025772 0.98796844c-1.5967026 0 -2.840805 -0.41248322 -3.7322998 -1.2374496c-0.8848419 -0.83161926 -1.3272629 -1.9459915 -1.3272629 -3.3431091c0 -0.8183136 0.15301514 -1.5401611 0.45905304 -2.165535c0.31269073 -0.6320343 0.7983475 -1.1709213 1.4569931 -1.6166687c0.65864563 -0.4524002 1.4869308 -0.7917023 2.4848785 -1.0178986c0.99794006 -0.23285675 2.1755142 -0.3492813 3.5327148 -0.3492813zm-5.7182083 -16.01698c-1.0378647 0 -2.0657425 0.09646988 -3.0836487 0.28940582c-1.0178986 0.18628311 -1.9559631 0.42578888 -2.8141937 0.7185173c-0.8582306 0.2860794 -1.6166687 0.60541916 -2.2753143 0.9580231c-0.658638 0.3459549 -1.1243439 0.64866257 -1.3971176 0.90813065c-0.26611328 0.25946426 -0.43576813 0.5355606 -0.5089493 0.82829285c-0.06652832 0.2860756 -0.09979248 0.6786003 -0.09979248 1.1775703c0 0.29938126 0.019958496 0.5754814 0.05987549 0.82829285c0.039916992 0.2461586 0.1031189 0.4490738 0.18960571 0.6087456c0.09314728 0.15967178 0.19959259 0.27942276 0.31934357 0.35925674c0.11975098 0.0798378 0.25946808 0.11975479 0.41913605 0.11975479c0.23950958 0 0.60209656 -0.14303589 1.0877609 -0.4291153c0.4923172 -0.29272842 1.101059 -0.612072 1.8262329 -0.9580231c0.7318268 -0.35260773 1.5800781 -0.6719475 2.544754 -0.9580269c0.97132874 -0.29272842 2.0657425 -0.43909454 3.2832336 -0.43909454c1.1376495 0 2.0956726 0.13638687 2.8740692 0.4091568c0.7783966 0.2661171 1.4104233 0.66529465 1.8960953 1.1975327c0.4923172 0.52558136 0.84825134 1.1875496 1.0677948 1.9859047c0.21955109 0.7983551 0.32932281 1.7164612 0.32932281 2.754322l0 2.0956764l-3.712349 0c-2.0956802 0 -3.9817886 0.18628311 -5.658333 0.55884933c-1.6765442 0.3659134 -3.0936203 0.9181061 -4.251236 1.6565857c-1.1576157 0.7384796 -2.045784 1.666565 -2.664505 2.784256c-0.61872864 1.1176987 -0.9280853 2.4349823 -0.9280853 3.9518585c0 1.2973251 0.22286987 2.4549332 0.66861725 3.4728394c0.45240784 1.0178986 1.0811081 1.8761292 1.886116 2.5746918c0.81166077 0.698555 1.7896423 1.2307968 2.9339523 1.5967026c1.1509552 0.37257385 2.4349747 0.55885315 3.8520584 0.55885315c1.6166611 0 3.146843 -0.3492813 4.5905304 -1.0478439c1.4503479 -0.698555 2.764305 -1.6765442 3.9418716 -2.9339523l0 2.6944504c0 0.23950195 0.069862366 0.41913605 0.20957184 0.538887c0.13970947 0.11975098 0.36258698 0.20956421 0.6686249 0.26944733c0.3126831 0.05987549 0.72849274 0.08981323 1.2474213 0.08981323c0.53889465 0 0.94805145 -0.029937744 1.2274704 -0.08981323c0.27942657 -0.059883118 0.49897003 -0.14969635 0.65864563 -0.26944733c0.15966797 -0.11975098 0.23950195 -0.29938507 0.23950195 -0.538887l0 -18.172535c0 -1.6765442 -0.18960571 -3.1435204 -0.56882477 -4.4009285c-0.37921906 -1.2574081 -0.9879608 -2.3085709 -1.8262329 -3.1534996c-0.8382721 -0.85157394 -1.9360123 -1.4969139 -3.293213 -1.9360085c-1.3572006 -0.43909454 -3.003807 -0.6586418 -4.9398117 -0.6586418z" fill-rule="evenodd"/><path fill="#000000" d="m148.78061 50.67055c-0.57881165 0 -1.1542969 0.07651138 -1.7264404 0.22952652c-0.565506 0.14636612 -1.1376648 0.41581345 -1.7164612 0.80833435c-0.57881165 0.3858719 -1.1942139 0.9181061 -1.8462067 1.5967102c-0.6453247 0.6786003 -1.3372345 1.5567894 -2.075714 2.6345673l0 -3.9219131c0 -0.15967178 -0.036590576 -0.29273224 -0.10977173 -0.39917755c-0.06652832 -0.11310196 -0.17962646 -0.21289444 -0.3393097 -0.29938507c-0.15966797 -0.09313965 -0.38586426 -0.15301514 -0.67858887 -0.17963028c-0.28608704 -0.033260345 -0.6486664 -0.04989624 -1.0877686 -0.04989624c-0.4590454 0 -0.82829285 0.016635895 -1.1077118 0.04989624c-0.27941895 0.026615143 -0.50894165 0.08649063 -0.6885834 0.17963028c-0.17962646 0.08649063 -0.29937744 0.18628311 -0.35925293 0.29938507c-0.05987549 0.10644531 -0.08981323 0.23950577 -0.08981323 0.39917755l0 26.94445c0 0.15966797 0.03326416 0.29605103 0.09979248 0.4091568c0.07318115 0.10644531 0.20291138 0.19958496 0.38919067 0.27941895c0.19294739 0.079833984 0.44908142 0.1397171 0.76841736 0.1796341c0.3193512 0.039916992 0.7185211 0.05987549 1.1975403 0.05987549c0.4989624 0 0.90812683 -0.019958496 1.2274628 -0.05987549c0.31933594 -0.039916992 0.5688324 -0.09980011 0.74845886 -0.1796341c0.17962646 -0.079833984 0.3093567 -0.17297363 0.38919067 -0.27941895c0.079833984 -0.113105774 0.119766235 -0.24948883 0.119766235 -0.4091568l0 -17.723461c0.69854736 -1.0977364 1.3372345 -2.0258255 1.9160461 -2.7842598c0.5787964 -0.7584381 1.1309967 -1.3671837 1.6565857 -1.8262367c0.53222656 -0.45905304 1.037857 -0.78837585 1.516861 -0.98796463c0.47901917 -0.19958496 0.9680176 -0.29938126 1.46698 -0.29938126c0.41914368 0 0.80833435 0.039916992 1.1676025 0.11975479c0.35925293 0.079833984 0.6819153 0.16632462 0.9680023 0.25946426c0.2927246 0.08648682 0.55218506 0.17630386 0.7783966 0.2694435c0.23284912 0.08649063 0.42910767 0.12973404 0.58877563 0.12973404c0.15966797 0 0.28276062 -0.04324341 0.36924744 -0.12973404c0.09313965 -0.09313965 0.16964722 -0.22287369 0.2295227 -0.3891983c0.05987549 -0.17297363 0.09979248 -0.4091568 0.11975098 -0.70853806c0.019958496 -0.29938126 0.029937744 -0.66862106 0.029937744 -1.1077156c0 -0.45905304 -0.006652832 -0.82164 -0.019958496 -1.0877571c-0.006652832 -0.27276993 -0.026611328 -0.47901154 -0.05987549 -0.6187248c-0.026611328 -0.13971329 -0.05987549 -0.25281143 -0.09979248 -0.33930206c-0.039916992 -0.09313965 -0.11975098 -0.18960953 -0.23950195 -0.289402c-0.11975098 -0.099796295 -0.32600403 -0.19958878 -0.61872864 -0.29938126c-0.28607178 -0.099796295 -0.6087494 -0.18960953 -0.9680023 -0.26944733c-0.3592682 -0.079833984 -0.70521545 -0.13305664 -1.037857 -0.15966797c-0.32600403 -0.03326416 -0.61872864 -0.049900055 -0.8781891 -0.049900055z" fill-rule="evenodd"/><path fill="#000000" d="m160.78586 38.00666c-0.47901917 0 -0.8781891 0.019958496 -1.1975403 0.05987549c-0.31933594 0.039920807 -0.57547 0.099796295 -0.76841736 0.17963028c-0.1862793 0.0798378 -0.31600952 0.17963028 -0.38919067 0.29938507c-0.06652832 0.11975098 -0.09979248 0.25946426 -0.09979248 0.41913605l0 39.99754c0 0.15966797 0.03326416 0.29605103 0.09979248 0.4091568c0.07318115 0.10644531 0.20291138 0.19958496 0.38919067 0.27941895c0.19294739 0.079833984 0.44908142 0.1397171 0.76841736 0.1796341c0.3193512 0.039916992 0.7185211 0.05987549 1.1975403 0.05987549c0.4989624 0 0.90812683 -0.019958496 1.2274628 -0.05987549c0.31933594 -0.039916992 0.5688324 -0.09980011 0.74845886 -0.1796341c0.17962646 -0.079833984 0.3093567 -0.17297363 0.38919067 -0.27941895c0.079833984 -0.113105774 0.11975098 -0.24948883 0.11975098 -0.4091568l0 -14.939201l11.376556 14.909264c0.11975098 0.17962646 0.25280762 0.33596802 0.39916992 0.4690323c0.15301514 0.12640381 0.34928894 0.22619629 0.5887909 0.29937744c0.23950195 0.06652832 0.5322418 0.113098145 0.8781891 0.1397171c0.3526001 0.03326416 0.7983551 0.04989624 1.3372345 0.04989624c0.51893616 0 0.9480591 -0.019958496 1.2873535 -0.05987549c0.33929443 -0.039916992 0.60209656 -0.09980011 0.78837585 -0.1796341c0.19293213 -0.079833984 0.3293152 -0.17962646 0.40914917 -0.29937744c0.079833984 -0.119758606 0.119766235 -0.25946808 0.119766235 -0.41913605c0 -0.1796341 -0.05656433 -0.37256622 -0.16966248 -0.57881165c-0.10644531 -0.21289062 -0.2893982 -0.48899078 -0.54885864 -0.82829285l-10.957413 -14.22068l9.759872 -9.759876c0.2993927 -0.31934357 0.5122833 -0.5987663 0.63868713 -0.8382721c0.13305664 -0.23950577 0.19958496 -0.47901154 0.19958496 -0.7185211c0 -0.17962646 -0.046569824 -0.32266617 -0.13970947 -0.4291153c-0.08648682 -0.113098145 -0.23617554 -0.20291138 -0.44906616 -0.2694435c-0.20625305 -0.07318115 -0.47901917 -0.12307739 -0.8183136 -0.14969254c-0.3393097 -0.033260345 -0.7584381 -0.04989624 -1.2574158 -0.04989624c-0.4790039 0 -0.88816833 0.016635895 -1.2274628 0.04989624c-0.3393097 0.026615143 -0.6353607 0.08649063 -0.88816833 0.17963028c-0.24617004 0.08649063 -0.45906067 0.19626236 -0.63868713 0.32932281c-0.17962646 0.12640762 -0.34927368 0.289402 -0.5089569 0.48899078l-10.179016 11.196915l0 -24.369755c0 -0.15967178 -0.039916992 -0.29938507 -0.11975098 -0.41913605c-0.079833984 -0.11975479 -0.20956421 -0.21954727 -0.38919067 -0.29938507c-0.17962646 -0.079833984 -0.42912292 -0.13970947 -0.74845886 -0.17963028c-0.31933594 -0.039916992 -0.72850037 -0.05987549 -1.2274628 -0.05987549z" fill-rule="evenodd"/><path fill="#000000" d="m195.155 54.53259c2.3750916 0 4.164749 0.7384796 5.368927 2.215435c1.2108307 1.4769554 1.7863159 3.5127563 1.7264404 6.1074066l-14.609879 0c0.039916992 -1.0977364 0.2295227 -2.148903 0.5688324 -3.1534996c0.33929443 -1.0112457 0.8183136 -1.8960876 1.437027 -2.6545258c0.61872864 -0.7584343 1.387146 -1.3671799 2.305252 -1.8262329c0.9181061 -0.45905685 1.9859009 -0.6885834 3.2033997 -0.6885834zm0.20956421 -3.8620377c-1.9759216 0 -3.7622375 0.3459549 -5.3589478 1.0378609c-1.5967102 0.68525696 -2.9605713 1.6732178 -4.091568 2.96389c-1.1243439 1.2840195 -1.9859009 2.850788 -2.584671 4.7003098c-0.59877014 1.8428688 -0.8981476 3.9219131 -0.8981476 6.2371445c0 2.4349747 0.2893982 4.570572 0.86820984 6.406784c0.57881165 1.8362198 1.4370422 3.3630676 2.5746918 4.580559c1.1376495 1.2174911 2.5381012 2.1355972 4.2013397 2.7543259c1.6698914 0.618721 3.6125488 0.9280853 5.8279877 0.9280853c1.277359 0 2.4782257 -0.096466064 3.6025696 -0.28940582c1.1309967 -0.1862793 2.1256104 -0.39917755 2.983841 -0.6386795c0.8582306 -0.23950958 1.5567932 -0.48234558 2.0956879 -0.72850037c0.5388794 -0.25281525 0.861557 -0.4324417 0.9680023 -0.538887c0.113098145 -0.113105774 0.20291138 -0.22953033 0.2694397 -0.3492813c0.07318115 -0.11975098 0.12307739 -0.25281525 0.14968872 -0.39917755c0.03326416 -0.15302277 0.05987549 -0.32266998 0.079833984 -0.5089493c0.019958496 -0.19293976 0.029937744 -0.41913605 0.029937744 -0.6786041c0 -0.35926056 -0.016616821 -0.66197205 -0.04989624 -0.90812683c-0.026611328 -0.25281525 -0.06985474 -0.4490738 -0.12973022 -0.58878326c-0.05987549 -0.1397171 -0.1463623 -0.242836 -0.25946045 -0.30936432c-0.10644531 -0.07318115 -0.2295227 -0.10977173 -0.36924744 -0.10977173c-0.23950195 0 -0.59542847 0.10644531 -1.0677948 0.31933594c-0.46569824 0.20624542 -1.0644684 0.43909454 -1.7962952 0.6985626c-0.72517395 0.25946808 -1.586731 0.49564362 -2.584671 0.70854187c-0.99794006 0.2062378 -2.1355896 0.3093567 -3.4129639 0.3093567c-1.6166687 0 -2.983841 -0.2295227 -4.1015472 -0.68857574c-1.117691 -0.45905304 -2.0258179 -1.1176987 -2.7243805 -1.9759293c-0.6985626 -0.8582306 -1.197525 -1.8861084 -1.4969177 -3.083641c-0.29937744 -1.1975327 -0.44906616 -2.544754 -0.44906616 -4.041664l17.66359 0c0.4989624 0 0.941391 -0.16300201 1.3272552 -0.4889984c0.39253235 -0.33264923 0.5887909 -0.88816833 0.5887909 -1.6665573l0 -0.8981514c0 -1.7563782 -0.22619629 -3.406311 -0.6786041 -4.949795c-0.44573975 -1.5501366 -1.1476288 -2.8973618 -2.1056519 -4.041668c-0.95803833 -1.150959 -2.1821747 -2.0657425 -3.6724396 -2.7443428c-1.4835968 -0.6786003 -3.2832336 -1.0179024 -5.3988647 -1.0179024z" fill-rule="evenodd"/><path fill="#000000" d="m228.29666 50.67055c-1.5368195 0 -3.0603485 0.39585114 -4.570572 1.1875534c-1.5035706 0.78504944 -3.0137787 2.0258217 -4.530655 3.7223244l0 -3.5626526c0 -0.15967178 -0.036590576 -0.29273224 -0.10977173 -0.39917755c-0.06652832 -0.11310196 -0.17964172 -0.21289444 -0.3393097 -0.29938507c-0.15966797 -0.09313965 -0.38586426 -0.15301514 -0.6786041 -0.17963028c-0.28607178 -0.033260345 -0.6486511 -0.04989624 -1.0877533 -0.04989624c-0.4590454 0 -0.82829285 0.016635895 -1.1077118 0.04989624c-0.27941895 0.026615143 -0.5089569 0.08649063 -0.6885834 0.17963028c-0.17962646 0.08649063 -0.29937744 0.18628311 -0.35925293 0.29938507c-0.05987549 0.10644531 -0.08981323 0.23950577 -0.08981323 0.39917755l0 26.94445c0 0.15966797 0.03326416 0.29605103 0.09979248 0.4091568c0.07318115 0.10644531 0.20291138 0.19958496 0.38919067 0.27941895c0.19293213 0.079833984 0.44908142 0.1397171 0.76841736 0.1796341c0.31933594 0.039916992 0.7185211 0.05987549 1.197525 0.05987549c0.49897766 0 0.90812683 -0.019958496 1.227478 -0.05987549c0.31933594 -0.039916992 0.56881714 -0.09980011 0.74845886 -0.1796341c0.17962646 -0.079833984 0.3093567 -0.17297363 0.38919067 -0.27941895c0.079833984 -0.113105774 0.11975098 -0.24948883 0.11975098 -0.4091568l0 -18.83118c1.3572083 -1.6964989 2.6545258 -2.9838448 3.891983 -3.8620377c1.237442 -0.8781891 2.4748993 -1.3172836 3.7123413 -1.3172836c0.9580231 0 1.7996216 0.17963028 2.5247955 0.53889084c0.7318268 0.35925674 1.3272705 0.8781891 1.7863159 1.5567894c0.45906067 0.6786003 0.80833435 1.4869347 1.0478363 2.4249992c0.23951721 0.9380684 0.3592682 2.175518 0.3592682 3.712349l0 15.777473c0 0.15966797 0.039916992 0.29605103 0.11975098 0.4091568c0.079833984 0.10644531 0.20956421 0.19958496 0.38919067 0.27941895c0.17964172 0.079833984 0.42912292 0.1397171 0.74845886 0.1796341c0.3193512 0.039916992 0.72850037 0.05987549 1.227478 0.05987549c0.4790039 0 0.8781891 -0.019958496 1.197525 -0.05987549c0.3193512 -0.039916992 0.5688324 -0.09980011 0.74845886 -0.1796341c0.17962646 -0.079833984 0.3093567 -0.17297363 0.38919067 -0.27941895c0.07984924 -0.113105774 0.119766235 -0.24948883 0.119766235 -0.4091568l0 -16.436115c0 -1.91605 -0.1663208 -3.5560036 -0.49897766 -4.919857c-0.32598877 -1.3705101 -0.86820984 -2.5647125 -1.626648 -3.582615c-0.7584381 -1.0179024 -1.7530518 -1.8295593 -2.983841 -2.4349785c-1.2241516 -0.612072 -2.734375 -0.9181099 -4.53067 -0.9181099z" fill-rule="evenodd"/><path stroke="#000000" stroke-width="0.34908136482939633" stroke-linejoin="round" stroke-linecap="butt" d="m77.70713 51.089687c-0.47901154 0 -0.8781891 0.016635895 -1.1975327 0.04989624c-0.31933594 0.026615143 -0.578804 0.08649063 -0.778389 0.17963028c-0.19959259 0.08649063 -0.33597565 0.18628311 -0.4091568 0.29938507c-0.06652832 0.10644531 -0.09980011 0.23950577 -0.09980011 0.39917755l0 16.346298c0 1.9559708 0.16300201 3.6192017 0.4889984 4.9897156c0.33264923 1.3638535 0.8781891 2.5613785 1.6366196 3.5925903c0.7584381 1.0245514 1.749733 1.8362122 2.9738693 2.4349823c1.2307968 0.5987625 2.7443466 0.8981476 4.540642 0.8981476c1.5368347 0 3.0537033 -0.3891983 4.550621 -1.1675949c1.4969101 -0.7783966 3.0137863 -2.0158463 4.5506134 -3.712349l0 3.5626602c0 0.15966797 0.029937744 0.29605103 0.08981323 0.4091568c0.059883118 0.10644531 0.17298126 0.19958496 0.33930206 0.27941895c0.17298126 0.079833984 0.40250397 0.1397171 0.6885834 0.1796341c0.29273224 0.039916992 0.66861725 0.05987549 1.1276703 0.05987549c0.41913605 0 0.7717438 -0.019958496 1.0578232 -0.05987549c0.29273224 -0.039916992 0.5289078 -0.09980011 0.70854187 -0.1796341c0.17962646 -0.079833984 0.30270386 -0.17297363 0.36923218 -0.27941895c0.07318878 -0.113105774 0.10977936 -0.24948883 0.10977936 -0.4091568l0 -26.94445c0 -0.15967178 -0.046569824 -0.29273224 -0.1397171 -0.39917755c-0.08648682 -0.11310196 -0.21954346 -0.21289444 -0.39917755 -0.29938507c-0.17962646 -0.09313965 -0.4291153 -0.15301514 -0.74845123 -0.17963028c-0.31934357 -0.033260345 -0.7185211 -0.04989624 -1.1975327 -0.04989624c-0.49897003 0 -0.9048004 0.016635895 -1.2174911 0.04989624c-0.30603027 0.026615143 -0.5588455 0.08649063 -0.7584381 0.17963028c-0.19958496 0.08649063 -0.33596802 0.18628311 -0.4091568 0.29938507c-0.06652832 0.10644531 -0.09979248 0.23950577 -0.09979248 0.39917755l0 18.831177c-1.3771591 1.6965027 -2.681137 2.9838486 -3.911934 3.8620377c-1.224144 0.8781891 -2.4549408 1.3172836 -3.6923904 1.3172836c-0.9580231 0 -1.7962952 -0.18296051 -2.5148163 -0.5488663c-0.7185135 -0.37257385 -1.3139496 -0.8915024 -1.7863159 -1.5567932c-0.46570587 -0.6719513 -0.81497955 -1.4802856 -1.0478363 -2.425003c-0.22619629 -0.95137024 -0.33930206 -2.2154312 -0.33930206 -3.792183l0 -15.687653c0 -0.15967178 -0.039916992 -0.29273224 -0.11975098 -0.39917755c-0.079833984 -0.11310196 -0.21622467 -0.21289444 -0.4091568 -0.29938507c-0.1862793 -0.09313965 -0.43909454 -0.15301514 -0.7584381 -0.17963028c-0.31934357 -0.033260345 -0.7185211 -0.04989624 -1.1975327 -0.04989624z" fill-rule="evenodd"/><path stroke="#000000" stroke-width="0.34908136482939633" stroke-linejoin="round" stroke-linecap="butt" d="m122.97381 66.68753l0 5.7182083c-1.2174911 1.3572083 -2.3817596 2.3651276 -3.4927979 3.0237656c-1.104393 0.65864563 -2.305252 0.98796844 -3.6025772 0.98796844c-1.5967026 0 -2.840805 -0.41248322 -3.7322998 -1.2374496c-0.8848419 -0.83161926 -1.3272629 -1.9459915 -1.3272629 -3.3431091c0 -0.8183136 0.15301514 -1.5401611 0.45905304 -2.165535c0.31269073 -0.6320343 0.7983475 -1.1709213 1.4569931 -1.6166687c0.65864563 -0.4524002 1.4869308 -0.7917023 2.4848785 -1.0178986c0.99794006 -0.23285675 2.1755142 -0.3492813 3.5327148 -0.3492813zm-5.7182083 -16.01698c-1.0378647 0 -2.0657425 0.09646988 -3.0836487 0.28940582c-1.0178986 0.18628311 -1.9559631 0.42578888 -2.8141937 0.7185173c-0.8582306 0.2860794 -1.6166687 0.60541916 -2.2753143 0.9580231c-0.658638 0.3459549 -1.1243439 0.64866257 -1.3971176 0.90813065c-0.26611328 0.25946426 -0.43576813 0.5355606 -0.5089493 0.82829285c-0.06652832 0.2860756 -0.09979248 0.6786003 -0.09979248 1.1775703c0 0.29938126 0.019958496 0.5754814 0.05987549 0.82829285c0.039916992 0.2461586 0.1031189 0.4490738 0.18960571 0.6087456c0.09314728 0.15967178 0.19959259 0.27942276 0.31934357 0.35925674c0.11975098 0.0798378 0.25946808 0.11975479 0.41913605 0.11975479c0.23950958 0 0.60209656 -0.14303589 1.0877609 -0.4291153c0.4923172 -0.29272842 1.101059 -0.612072 1.8262329 -0.9580231c0.7318268 -0.35260773 1.5800781 -0.6719475 2.544754 -0.9580269c0.97132874 -0.29272842 2.0657425 -0.43909454 3.2832336 -0.43909454c1.1376495 0 2.0956726 0.13638687 2.8740692 0.4091568c0.7783966 0.2661171 1.4104233 0.66529465 1.8960953 1.1975327c0.4923172 0.52558136 0.84825134 1.1875496 1.0677948 1.9859047c0.21955109 0.7983551 0.32932281 1.7164612 0.32932281 2.754322l0 2.0956764l-3.712349 0c-2.0956802 0 -3.9817886 0.18628311 -5.658333 0.55884933c-1.6765442 0.3659134 -3.0936203 0.9181061 -4.251236 1.6565857c-1.1576157 0.7384796 -2.045784 1.666565 -2.664505 2.784256c-0.61872864 1.1176987 -0.9280853 2.4349823 -0.9280853 3.9518585c0 1.2973251 0.22286987 2.4549332 0.66861725 3.4728394c0.45240784 1.0178986 1.0811081 1.8761292 1.886116 2.5746918c0.81166077 0.698555 1.7896423 1.2307968 2.9339523 1.5967026c1.1509552 0.37257385 2.4349747 0.55885315 3.8520584 0.55885315c1.6166611 0 3.146843 -0.3492813 4.5905304 -1.0478439c1.4503479 -0.698555 2.764305 -1.6765442 3.9418716 -2.9339523l0 2.6944504c0 0.23950195 0.069862366 0.41913605 0.20957184 0.538887c0.13970947 0.11975098 0.36258698 0.20956421 0.6686249 0.26944733c0.3126831 0.05987549 0.72849274 0.08981323 1.2474213 0.08981323c0.53889465 0 0.94805145 -0.029937744 1.2274704 -0.08981323c0.27942657 -0.059883118 0.49897003 -0.14969635 0.65864563 -0.26944733c0.15966797 -0.11975098 0.23950195 -0.29938507 0.23950195 -0.538887l0 -18.172535c0 -1.6765442 -0.18960571 -3.1435204 -0.56882477 -4.4009285c-0.37921906 -1.2574081 -0.9879608 -2.3085709 -1.8262329 -3.1534996c-0.8382721 -0.85157394 -1.9360123 -1.4969139 -3.293213 -1.9360085c-1.3572006 -0.43909454 -3.003807 -0.6586418 -4.9398117 -0.6586418z" fill-rule="evenodd"/><path stroke="#000000" stroke-width="0.34908136482939633" stroke-linejoin="round" stroke-linecap="butt" d="m148.78061 50.67055c-0.57881165 0 -1.1542969 0.07651138 -1.7264404 0.22952652c-0.565506 0.14636612 -1.1376648 0.41581345 -1.7164612 0.80833435c-0.57881165 0.3858719 -1.1942139 0.9181061 -1.8462067 1.5967102c-0.6453247 0.6786003 -1.3372345 1.5567894 -2.075714 2.6345673l0 -3.9219131c0 -0.15967178 -0.036590576 -0.29273224 -0.10977173 -0.39917755c-0.06652832 -0.11310196 -0.17962646 -0.21289444 -0.3393097 -0.29938507c-0.15966797 -0.09313965 -0.38586426 -0.15301514 -0.67858887 -0.17963028c-0.28608704 -0.033260345 -0.6486664 -0.04989624 -1.0877686 -0.04989624c-0.4590454 0 -0.82829285 0.016635895 -1.1077118 0.04989624c-0.27941895 0.026615143 -0.50894165 0.08649063 -0.6885834 0.17963028c-0.17962646 0.08649063 -0.29937744 0.18628311 -0.35925293 0.29938507c-0.05987549 0.10644531 -0.08981323 0.23950577 -0.08981323 0.39917755l0 26.94445c0 0.15966797 0.03326416 0.29605103 0.09979248 0.4091568c0.07318115 0.10644531 0.20291138 0.19958496 0.38919067 0.27941895c0.19294739 0.079833984 0.44908142 0.1397171 0.76841736 0.1796341c0.3193512 0.039916992 0.7185211 0.05987549 1.1975403 0.05987549c0.4989624 0 0.90812683 -0.019958496 1.2274628 -0.05987549c0.31933594 -0.039916992 0.5688324 -0.09980011 0.74845886 -0.1796341c0.17962646 -0.079833984 0.3093567 -0.17297363 0.38919067 -0.27941895c0.079833984 -0.113105774 0.119766235 -0.24948883 0.119766235 -0.4091568l0 -17.723461c0.69854736 -1.0977364 1.3372345 -2.0258255 1.9160461 -2.7842598c0.5787964 -0.7584381 1.1309967 -1.3671837 1.6565857 -1.8262367c0.53222656 -0.45905304 1.037857 -0.78837585 1.516861 -0.98796463c0.47901917 -0.19958496 0.9680176 -0.29938126 1.46698 -0.29938126c0.41914368 0 0.80833435 0.039916992 1.1676025 0.11975479c0.35925293 0.079833984 0.6819153 0.16632462 0.9680023 0.25946426c0.2927246 0.08648682 0.55218506 0.17630386 0.7783966 0.2694435c0.23284912 0.08649063 0.42910767 0.12973404 0.58877563 0.12973404c0.15966797 0 0.28276062 -0.04324341 0.36924744 -0.12973404c0.09313965 -0.09313965 0.16964722 -0.22287369 0.2295227 -0.3891983c0.05987549 -0.17297363 0.09979248 -0.4091568 0.11975098 -0.70853806c0.019958496 -0.29938126 0.029937744 -0.66862106 0.029937744 -1.1077156c0 -0.45905304 -0.006652832 -0.82164 -0.019958496 -1.0877571c-0.006652832 -0.27276993 -0.026611328 -0.47901154 -0.05987549 -0.6187248c-0.026611328 -0.13971329 -0.05987549 -0.25281143 -0.09979248 -0.33930206c-0.039916992 -0.09313965 -0.11975098 -0.18960953 -0.23950195 -0.289402c-0.11975098 -0.099796295 -0.32600403 -0.19958878 -0.61872864 -0.29938126c-0.28607178 -0.099796295 -0.6087494 -0.18960953 -0.9680023 -0.26944733c-0.3592682 -0.079833984 -0.70521545 -0.13305664 -1.037857 -0.15966797c-0.32600403 -0.03326416 -0.61872864 -0.049900055 -0.8781891 -0.049900055z" fill-rule="evenodd"/><path stroke="#000000" stroke-width="0.34908136482939633" stroke-linejoin="round" stroke-linecap="butt" d="m160.78586 38.00666c-0.47901917 0 -0.8781891 0.019958496 -1.1975403 0.05987549c-0.31933594 0.039920807 -0.57547 0.099796295 -0.76841736 0.17963028c-0.1862793 0.0798378 -0.31600952 0.17963028 -0.38919067 0.29938507c-0.06652832 0.11975098 -0.09979248 0.25946426 -0.09979248 0.41913605l0 39.99754c0 0.15966797 0.03326416 0.29605103 0.09979248 0.4091568c0.07318115 0.10644531 0.20291138 0.19958496 0.38919067 0.27941895c0.19294739 0.079833984 0.44908142 0.1397171 0.76841736 0.1796341c0.3193512 0.039916992 0.7185211 0.05987549 1.1975403 0.05987549c0.4989624 0 0.90812683 -0.019958496 1.2274628 -0.05987549c0.31933594 -0.039916992 0.5688324 -0.09980011 0.74845886 -0.1796341c0.17962646 -0.079833984 0.3093567 -0.17297363 0.38919067 -0.27941895c0.079833984 -0.113105774 0.11975098 -0.24948883 0.11975098 -0.4091568l0 -14.939201l11.376556 14.909264c0.11975098 0.17962646 0.25280762 0.33596802 0.39916992 0.4690323c0.15301514 0.12640381 0.34928894 0.22619629 0.5887909 0.29937744c0.23950195 0.06652832 0.5322418 0.113098145 0.8781891 0.1397171c0.3526001 0.03326416 0.7983551 0.04989624 1.3372345 0.04989624c0.51893616 0 0.9480591 -0.019958496 1.2873535 -0.05987549c0.33929443 -0.039916992 0.60209656 -0.09980011 0.78837585 -0.1796341c0.19293213 -0.079833984 0.3293152 -0.17962646 0.40914917 -0.29937744c0.079833984 -0.119758606 0.119766235 -0.25946808 0.119766235 -0.41913605c0 -0.1796341 -0.05656433 -0.37256622 -0.16966248 -0.57881165c-0.10644531 -0.21289062 -0.2893982 -0.48899078 -0.54885864 -0.82829285l-10.957413 -14.22068l9.759872 -9.759876c0.2993927 -0.31934357 0.5122833 -0.5987663 0.63868713 -0.8382721c0.13305664 -0.23950577 0.19958496 -0.47901154 0.19958496 -0.7185211c0 -0.17962646 -0.046569824 -0.32266617 -0.13970947 -0.4291153c-0.08648682 -0.113098145 -0.23617554 -0.20291138 -0.44906616 -0.2694435c-0.20625305 -0.07318115 -0.47901917 -0.12307739 -0.8183136 -0.14969254c-0.3393097 -0.033260345 -0.7584381 -0.04989624 -1.2574158 -0.04989624c-0.4790039 0 -0.88816833 0.016635895 -1.2274628 0.04989624c-0.3393097 0.026615143 -0.6353607 0.08649063 -0.88816833 0.17963028c-0.24617004 0.08649063 -0.45906067 0.19626236 -0.63868713 0.32932281c-0.17962646 0.12640762 -0.34927368 0.289402 -0.5089569 0.48899078l-10.179016 11.196915l0 -24.369755c0 -0.15967178 -0.039916992 -0.29938507 -0.11975098 -0.41913605c-0.079833984 -0.11975479 -0.20956421 -0.21954727 -0.38919067 -0.29938507c-0.17962646 -0.079833984 -0.42912292 -0.13970947 -0.74845886 -0.17963028c-0.31933594 -0.039916992 -0.72850037 -0.05987549 -1.2274628 -0.05987549z" fill-rule="evenodd"/><path stroke="#000000" stroke-width="0.34908136482939633" stroke-linejoin="round" stroke-linecap="butt" d="m195.155 54.53259c2.3750916 0 4.164749 0.7384796 5.368927 2.215435c1.2108307 1.4769554 1.7863159 3.5127563 1.7264404 6.1074066l-14.609879 0c0.039916992 -1.0977364 0.2295227 -2.148903 0.5688324 -3.1534996c0.33929443 -1.0112457 0.8183136 -1.8960876 1.437027 -2.6545258c0.61872864 -0.7584343 1.387146 -1.3671799 2.305252 -1.8262329c0.9181061 -0.45905685 1.9859009 -0.6885834 3.2033997 -0.6885834zm0.20956421 -3.8620377c-1.9759216 0 -3.7622375 0.3459549 -5.3589478 1.0378609c-1.5967102 0.68525696 -2.9605713 1.6732178 -4.091568 2.96389c-1.1243439 1.2840195 -1.9859009 2.850788 -2.584671 4.7003098c-0.59877014 1.8428688 -0.8981476 3.9219131 -0.8981476 6.2371445c0 2.4349747 0.2893982 4.570572 0.86820984 6.406784c0.57881165 1.8362198 1.4370422 3.3630676 2.5746918 4.580559c1.1376495 1.2174911 2.5381012 2.1355972 4.2013397 2.7543259c1.6698914 0.618721 3.6125488 0.9280853 5.8279877 0.9280853c1.277359 0 2.4782257 -0.096466064 3.6025696 -0.28940582c1.1309967 -0.1862793 2.1256104 -0.39917755 2.983841 -0.6386795c0.8582306 -0.23950958 1.5567932 -0.48234558 2.0956879 -0.72850037c0.5388794 -0.25281525 0.861557 -0.4324417 0.9680023 -0.538887c0.113098145 -0.113105774 0.20291138 -0.22953033 0.2694397 -0.3492813c0.07318115 -0.11975098 0.12307739 -0.25281525 0.14968872 -0.39917755c0.03326416 -0.15302277 0.05987549 -0.32266998 0.079833984 -0.5089493c0.019958496 -0.19293976 0.029937744 -0.41913605 0.029937744 -0.6786041c0 -0.35926056 -0.016616821 -0.66197205 -0.04989624 -0.90812683c-0.026611328 -0.25281525 -0.06985474 -0.4490738 -0.12973022 -0.58878326c-0.05987549 -0.1397171 -0.1463623 -0.242836 -0.25946045 -0.30936432c-0.10644531 -0.07318115 -0.2295227 -0.10977173 -0.36924744 -0.10977173c-0.23950195 0 -0.59542847 0.10644531 -1.0677948 0.31933594c-0.46569824 0.20624542 -1.0644684 0.43909454 -1.7962952 0.6985626c-0.72517395 0.25946808 -1.586731 0.49564362 -2.584671 0.70854187c-0.99794006 0.2062378 -2.1355896 0.3093567 -3.4129639 0.3093567c-1.6166687 0 -2.983841 -0.2295227 -4.1015472 -0.68857574c-1.117691 -0.45905304 -2.0258179 -1.1176987 -2.7243805 -1.9759293c-0.6985626 -0.8582306 -1.197525 -1.8861084 -1.4969177 -3.083641c-0.29937744 -1.1975327 -0.44906616 -2.544754 -0.44906616 -4.041664l17.66359 0c0.4989624 0 0.941391 -0.16300201 1.3272552 -0.4889984c0.39253235 -0.33264923 0.5887909 -0.88816833 0.5887909 -1.6665573l0 -0.8981514c0 -1.7563782 -0.22619629 -3.406311 -0.6786041 -4.949795c-0.44573975 -1.5501366 -1.1476288 -2.8973618 -2.1056519 -4.041668c-0.95803833 -1.150959 -2.1821747 -2.0657425 -3.6724396 -2.7443428c-1.4835968 -0.6786003 -3.2832336 -1.0179024 -5.3988647 -1.0179024z" fill-rule="evenodd"/><path stroke="#000000" stroke-width="0.34908136482939633" stroke-linejoin="round" stroke-linecap="butt" d="m228.29666 50.67055c-1.5368195 0 -3.0603485 0.39585114 -4.570572 1.1875534c-1.5035706 0.78504944 -3.0137787 2.0258217 -4.530655 3.7223244l0 -3.5626526c0 -0.15967178 -0.036590576 -0.29273224 -0.10977173 -0.39917755c-0.06652832 -0.11310196 -0.17964172 -0.21289444 -0.3393097 -0.29938507c-0.15966797 -0.09313965 -0.38586426 -0.15301514 -0.6786041 -0.17963028c-0.28607178 -0.033260345 -0.6486511 -0.04989624 -1.0877533 -0.04989624c-0.4590454 0 -0.82829285 0.016635895 -1.1077118 0.04989624c-0.27941895 0.026615143 -0.5089569 0.08649063 -0.6885834 0.17963028c-0.17962646 0.08649063 -0.29937744 0.18628311 -0.35925293 0.29938507c-0.05987549 0.10644531 -0.08981323 0.23950577 -0.08981323 0.39917755l0 26.94445c0 0.15966797 0.03326416 0.29605103 0.09979248 0.4091568c0.07318115 0.10644531 0.20291138 0.19958496 0.38919067 0.27941895c0.19293213 0.079833984 0.44908142 0.1397171 0.76841736 0.1796341c0.31933594 0.039916992 0.7185211 0.05987549 1.197525 0.05987549c0.49897766 0 0.90812683 -0.019958496 1.227478 -0.05987549c0.31933594 -0.039916992 0.56881714 -0.09980011 0.74845886 -0.1796341c0.17962646 -0.079833984 0.3093567 -0.17297363 0.38919067 -0.27941895c0.079833984 -0.113105774 0.11975098 -0.24948883 0.11975098 -0.4091568l0 -18.83118c1.3572083 -1.6964989 2.6545258 -2.9838448 3.891983 -3.8620377c1.237442 -0.8781891 2.4748993 -1.3172836 3.7123413 -1.3172836c0.9580231 0 1.7996216 0.17963028 2.5247955 0.53889084c0.7318268 0.35925674 1.3272705 0.8781891 1.7863159 1.5567894c0.45906067 0.6786003 0.80833435 1.4869347 1.0478363 2.4249992c0.23951721 0.9380684 0.3592682 2.175518 0.3592682 3.712349l0 15.777473c0 0.15966797 0.039916992 0.29605103 0.11975098 0.4091568c0.079833984 0.10644531 0.20956421 0.19958496 0.38919067 0.27941895c0.17964172 0.079833984 0.42912292 0.1397171 0.74845886 0.1796341c0.3193512 0.039916992 0.72850037 0.05987549 1.227478 0.05987549c0.4790039 0 0.8781891 -0.019958496 1.197525 -0.05987549c0.3193512 -0.039916992 0.5688324 -0.09980011 0.74845886 -0.1796341c0.17962646 -0.079833984 0.3093567 -0.17297363 0.38919067 -0.27941895c0.07984924 -0.113105774 0.119766235 -0.24948883 0.119766235 -0.4091568l0 -16.436115c0 -1.91605 -0.1663208 -3.5560036 -0.49897766 -4.919857c-0.32598877 -1.3705101 -0.86820984 -2.5647125 -1.626648 -3.582615c-0.7584381 -1.0179024 -1.7530518 -1.8295593 -2.983841 -2.4349785c-1.2241516 -0.612072 -2.734375 -0.9181099 -4.53067 -0.9181099z" fill-rule="evenodd"/><path fill="#000000" d="m299.12305 53.641926c-0.51449585 0 -0.9260864 0.024486542 -1.2347717 0.07345581c-0.3086853 0.042850494 -0.5316467 0.12854767 -0.66882324 0.25709915c-0.13720703 0.12854767 -0.20581055 0.30300903 -0.20581055 0.5233803c0 0.22037125 0.068603516 0.5233803 0.20581055 0.9090309l8.257538 23.689857c0.051452637 0.18364716 0.14578247 0.35810852 0.2829895 0.5233841c0.13720703 0.16527557 0.28295898 0.28464508 0.4373169 0.3581009l-3.1898499 8.622009c-0.10290527 0.25709534 -0.14575195 0.4774704 -0.12860107 0.6611099c0.017120361 0.18364716 0.09716797 0.33055878 0.24008179 0.4407425c0.1486206 0.110183716 0.36013794 0.18670654 0.6345215 0.22955322c0.27441406 0.048973083 0.634552 0.07345581 1.0804443 0.07345581c0.8574829 0 1.494873 -0.079574585 1.9122009 -0.23873138c0.42300415 -0.15303802 0.6859741 -0.37647247 0.7888794 -0.6702957l3.0869446 -9.117844l8.3089905 -24.653984c0.10290527 -0.33055496 0.15435791 -0.60601807 0.15435791 -0.8263893c0 -0.22037125 -0.0743103 -0.3948326 -0.22293091 -0.5233803c-0.14291382 -0.12855148 -0.3687439 -0.21424866 -0.6774292 -0.25709915c-0.3086853 -0.04896927 -0.703125 -0.07345581 -1.1833191 -0.07345581c-0.5487976 0 -0.9689636 0.024486542 -1.260498 0.07345581c-0.29156494 0.042850494 -0.5116272 0.116306305 -0.6602783 0.22037125c-0.14291382 0.09794235 -0.2658081 0.321373 -0.36871338 0.6702919l-6.379669 19.998653l-0.077178955 0l-6.611206 -19.888466c-0.08572388 -0.2387352 -0.16864014 -0.42543793 -0.24865723 -0.5601082c-0.0743103 -0.14079285 -0.1972351 -0.24791718 -0.36871338 -0.3213768c-0.17150879 -0.07345581 -0.40301514 -0.12242508 -0.6945801 -0.14691162c-0.29153442 -0.03060913 -0.69454956 -0.04590988 -1.2090454 -0.04590988z" fill-rule="evenodd"/><path fill="#000000" d="m326.03088 41.604168c-0.41159058 0 -0.75457764 0.018363953 -1.0289917 0.055095673c-0.27438354 0.036727905 -0.49447632 0.09181976 -0.6602478 0.16527557c-0.1600647 0.07345581 -0.2715454 0.16527939 -0.33441162 0.2754631c-0.05718994 0.11018753 -0.085754395 0.2387352 -0.085754395 0.38565063l0 36.80192c0 0.14691925 0.028564453 0.2723999 0.085754395 0.37646484c0.06286621 0.09794617 0.17434692 0.18364716 0.33441162 0.25710297c0.16577148 0.07345581 0.38586426 0.12854767 0.6602478 0.16527557c0.27441406 0.036727905 0.6174011 0.055091858 1.0289917 0.055091858c0.42874146 0 0.78030396 -0.018363953 1.0546875 -0.055091858c0.27441406 -0.036727905 0.48876953 -0.09181976 0.64312744 -0.16527557c0.15435791 -0.07345581 0.2658081 -0.1591568 0.33441162 -0.25710297c0.068603516 -0.10406494 0.10290527 -0.2295456 0.10290527 -0.37646484l0 -13.745628l9.775299 13.718086c0.10290527 0.16527557 0.21725464 0.3091278 0.34301758 0.4315567c0.13146973 0.11630249 0.30010986 0.20812988 0.5058899 0.27546692c0.20581055 0.061210632 0.45733643 0.10405731 0.75460815 0.12854767c0.30297852 0.03060913 0.6859741 0.045906067 1.1490173 0.045906067c0.44589233 0 0.8146057 -0.018363953 1.1061401 -0.055091858c0.29156494 -0.036727905 0.5173645 -0.09181976 0.6774292 -0.16527557c0.16577148 -0.07345581 0.28295898 -0.16527557 0.3515625 -0.27546692c0.068603516 -0.110183716 0.10290527 -0.23873138 0.10290527 -0.385643c0 -0.1652832 -0.048583984 -0.34280396 -0.14578247 -0.53256226c-0.09146118 -0.19589233 -0.24865723 -0.44992828 -0.47161865 -0.7621155l-9.415161 -13.084518l8.3862 -8.98011c0.25723267 -0.29383087 0.44015503 -0.55093 0.5487671 -0.77129745c0.114349365 -0.22037125 0.17150879 -0.4407425 0.17150879 -0.66111374c0 -0.16527939 -0.040008545 -0.29688644 -0.12005615 -0.3948326c-0.0743103 -0.10406113 -0.2029419 -0.18670273 -0.38586426 -0.24791718c-0.17721558 -0.06733322 -0.41159058 -0.1132431 -0.703125 -0.13772964c-0.29156494 -0.03060913 -0.6517029 -0.04590988 -1.0804443 -0.04590988c-0.41159058 0 -0.7631531 0.015300751 -1.0546875 0.04590988c-0.29156494 0.024486542 -0.54592896 0.0795784 -0.7631836 0.16527557c-0.21148682 0.079582214 -0.3944397 0.18058395 -0.5487671 0.30301285c-0.15435791 0.116306305 -0.30014038 0.26628113 -0.4373169 0.44992065l-8.746338 10.302334l0 -22.422726c0 -0.14691544 -0.034301758 -0.2754631 -0.10290527 -0.38565063c-0.068603516 -0.110183716 -0.18005371 -0.2020073 -0.33441162 -0.2754631c-0.15435791 -0.07345581 -0.36871338 -0.12854767 -0.64312744 -0.16527557c-0.27438354 -0.03673172 -0.62594604 -0.055095673 -1.0546875 -0.055095673z" fill-rule="evenodd"/><path stroke="#000000" stroke-width="0.34908136482939633" stroke-linejoin="round" stroke-linecap="butt" d="m299.12305 53.641926c-0.51449585 0 -0.9260864 0.024486542 -1.2347717 0.07345581c-0.3086853 0.042850494 -0.5316467 0.12854767 -0.66882324 0.25709915c-0.13720703 0.12854767 -0.20581055 0.30300903 -0.20581055 0.5233803c0 0.22037125 0.068603516 0.5233803 0.20581055 0.9090309l8.257538 23.689857c0.051452637 0.18364716 0.14578247 0.35810852 0.2829895 0.5233841c0.13720703 0.16527557 0.28295898 0.28464508 0.4373169 0.3581009l-3.1898499 8.622009c-0.10290527 0.25709534 -0.14575195 0.4774704 -0.12860107 0.6611099c0.017120361 0.18364716 0.09716797 0.33055878 0.24008179 0.4407425c0.1486206 0.110183716 0.36013794 0.18670654 0.6345215 0.22955322c0.27441406 0.048973083 0.634552 0.07345581 1.0804443 0.07345581c0.8574829 0 1.494873 -0.079574585 1.9122009 -0.23873138c0.42300415 -0.15303802 0.6859741 -0.37647247 0.7888794 -0.6702957l3.0869446 -9.117844l8.3089905 -24.653984c0.10290527 -0.33055496 0.15435791 -0.60601807 0.15435791 -0.8263893c0 -0.22037125 -0.0743103 -0.3948326 -0.22293091 -0.5233803c-0.14291382 -0.12855148 -0.3687439 -0.21424866 -0.6774292 -0.25709915c-0.3086853 -0.04896927 -0.703125 -0.07345581 -1.1833191 -0.07345581c-0.5487976 0 -0.9689636 0.024486542 -1.260498 0.07345581c-0.29156494 0.042850494 -0.5116272 0.116306305 -0.6602783 0.22037125c-0.14291382 0.09794235 -0.2658081 0.321373 -0.36871338 0.6702919l-6.379669 19.998653l-0.077178955 0l-6.611206 -19.888466c-0.08572388 -0.2387352 -0.16864014 -0.42543793 -0.24865723 -0.5601082c-0.0743103 -0.14079285 -0.1972351 -0.24791718 -0.36871338 -0.3213768c-0.17150879 -0.07345581 -0.40301514 -0.12242508 -0.6945801 -0.14691162c-0.29153442 -0.03060913 -0.69454956 -0.04590988 -1.2090454 -0.04590988z" fill-rule="evenodd"/><path stroke="#000000" stroke-width="0.34908136482939633" stroke-linejoin="round" stroke-linecap="butt" d="m326.03088 41.604168c-0.41159058 0 -0.75457764 0.018363953 -1.0289917 0.055095673c-0.27438354 0.036727905 -0.49447632 0.09181976 -0.6602478 0.16527557c-0.1600647 0.07345581 -0.2715454 0.16527939 -0.33441162 0.2754631c-0.05718994 0.11018753 -0.085754395 0.2387352 -0.085754395 0.38565063l0 36.80192c0 0.14691925 0.028564453 0.2723999 0.085754395 0.37646484c0.06286621 0.09794617 0.17434692 0.18364716 0.33441162 0.25710297c0.16577148 0.07345581 0.38586426 0.12854767 0.6602478 0.16527557c0.27441406 0.036727905 0.6174011 0.055091858 1.0289917 0.055091858c0.42874146 0 0.78030396 -0.018363953 1.0546875 -0.055091858c0.27441406 -0.036727905 0.48876953 -0.09181976 0.64312744 -0.16527557c0.15435791 -0.07345581 0.2658081 -0.1591568 0.33441162 -0.25710297c0.068603516 -0.10406494 0.10290527 -0.2295456 0.10290527 -0.37646484l0 -13.745628l9.775299 13.718086c0.10290527 0.16527557 0.21725464 0.3091278 0.34301758 0.4315567c0.13146973 0.11630249 0.30010986 0.20812988 0.5058899 0.27546692c0.20581055 0.061210632 0.45733643 0.10405731 0.75460815 0.12854767c0.30297852 0.03060913 0.6859741 0.045906067 1.1490173 0.045906067c0.44589233 0 0.8146057 -0.018363953 1.1061401 -0.055091858c0.29156494 -0.036727905 0.5173645 -0.09181976 0.6774292 -0.16527557c0.16577148 -0.07345581 0.28295898 -0.16527557 0.3515625 -0.27546692c0.068603516 -0.110183716 0.10290527 -0.23873138 0.10290527 -0.385643c0 -0.1652832 -0.048583984 -0.34280396 -0.14578247 -0.53256226c-0.09146118 -0.19589233 -0.24865723 -0.44992828 -0.47161865 -0.7621155l-9.415161 -13.084518l8.3862 -8.98011c0.25723267 -0.29383087 0.44015503 -0.55093 0.5487671 -0.77129745c0.114349365 -0.22037125 0.17150879 -0.4407425 0.17150879 -0.66111374c0 -0.16527939 -0.040008545 -0.29688644 -0.12005615 -0.3948326c-0.0743103 -0.10406113 -0.2029419 -0.18670273 -0.38586426 -0.24791718c-0.17721558 -0.06733322 -0.41159058 -0.1132431 -0.703125 -0.13772964c-0.29156494 -0.03060913 -0.6517029 -0.04590988 -1.0804443 -0.04590988c-0.41159058 0 -0.7631531 0.015300751 -1.0546875 0.04590988c-0.29156494 0.024486542 -0.54592896 0.0795784 -0.7631836 0.16527557c-0.21148682 0.079582214 -0.3944397 0.18058395 -0.5487671 0.30301285c-0.15435791 0.116306305 -0.30014038 0.26628113 -0.4373169 0.44992065l-8.746338 10.302334l0 -22.422726c0 -0.14691544 -0.034301758 -0.2754631 -0.10290527 -0.38565063c-0.068603516 -0.110183716 -0.18005371 -0.2020073 -0.33441162 -0.2754631c-0.15435791 -0.07345581 -0.36871338 -0.12854767 -0.64312744 -0.16527557c-0.27438354 -0.03673172 -0.62594604 -0.055095673 -1.0546875 -0.055095673z" fill-rule="evenodd"/><path fill="#000000" fill-opacity="0.0" d="m30.184523 44.364784l0 0c0 -5.4610214 4.4144497 -9.888058 9.859945 -9.888058l0 0c2.6150208 0 5.1229362 1.0417747 6.9720345 2.8961449c1.849102 1.8543701 2.8879128 4.369438 2.8879128 6.991913l0 0c0 5.461025 -4.414448 9.888058 -9.859947 9.888058l0 0c-5.4454956 0 -9.859945 -4.4270325 -9.859945 -9.888058z" fill-rule="evenodd"/><path stroke="#000000" stroke-width="1.5853018372703411" stroke-linejoin="round" stroke-linecap="butt" d="m30.184523 44.364784l0 0c0 -5.4610214 4.4144497 -9.888058 9.859945 -9.888058l0 0c2.6150208 0 5.1229362 1.0417747 6.9720345 2.8961449c1.849102 1.8543701 2.8879128 4.369438 2.8879128 6.991913l0 0c0 5.461025 -4.414448 9.888058 -9.859947 9.888058l0 0c-5.4454956 0 -9.859945 -4.4270325 -9.859945 -9.888058z" fill-rule="evenodd"/><path fill="#000000" fill-opacity="0.0" d="m34.783756 67.44748l0 0c0 -2.9140778 2.35561 -5.2764053 5.261402 -5.2764053l0 0c1.3954086 0 2.7336693 0.5559082 3.7203712 1.5454254c0.9867058 0.9895172 1.5410271 2.3315887 1.5410271 3.73098l0 0c0 2.9140701 -2.355606 5.2763977 -5.2613983 5.2763977l0 0c-2.9057922 0 -5.261402 -2.3623276 -5.261402 -5.2763977z" fill-rule="evenodd"/><path stroke="#000000" stroke-width="1.5853018372703411" stroke-linejoin="round" stroke-linecap="butt" d="m34.783756 67.44748l0 0c0 -2.9140778 2.35561 -5.2764053 5.261402 -5.2764053l0 0c1.3954086 0 2.7336693 0.5559082 3.7203712 1.5454254c0.9867058 0.9895172 1.5410271 2.3315887 1.5410271 3.73098l0 0c0 2.9140701 -2.355606 5.2763977 -5.2613983 5.2763977l0 0c-2.9057922 0 -5.261402 -2.3623276 -5.261402 -5.2763977z" fill-rule="evenodd"/><path fill="#000000" fill-opacity="0.0" d="m34.51225 21.284433l0 0c0 -2.9140759 2.35561 -5.2763996 5.2613983 -5.2763996l0 0c1.3954124 0 2.7336693 0.5559044 3.7203712 1.5454216c0.9867058 0.9895172 1.5410309 2.3315887 1.5410309 3.730978l0 0c0 2.9140759 -2.35561 5.2763996 -5.261402 5.2763996l0 0c-2.9057884 0 -5.2613983 -2.3623238 -5.2613983 -5.2763996z" fill-rule="evenodd"/><path stroke="#000000" stroke-width="1.5853018372703411" stroke-linejoin="round" stroke-linecap="butt" d="m34.51225 21.284433l0 0c0 -2.9140759 2.35561 -5.2763996 5.2613983 -5.2763996l0 0c1.3954124 0 2.7336693 0.5559044 3.7203712 1.5454216c0.9867058 0.9895172 1.5410309 2.3315887 1.5410309 3.730978l0 0c0 2.9140759 -2.35561 5.2763996 -5.261402 5.2763996l0 0c-2.9057884 0 -5.2613983 -2.3623238 -5.2613983 -5.2763996z" fill-rule="evenodd"/><path fill="#000000" fill-opacity="0.0" d="m19.127008 29.209524l0 0c0 -2.914074 2.35561 -5.2763996 5.2614 -5.2763996l0 0c1.3954105 0 2.7336674 0.5559044 3.7203732 1.5454216c0.9867039 0.9895172 1.5410271 2.3315907 1.5410271 3.730978l0 0c0 2.9140759 -2.355608 5.2763996 -5.2614 5.2763996l0 0c-2.9057903 0 -5.2614 -2.3623238 -5.2614 -5.2763996z" fill-rule="evenodd"/><path stroke="#000000" stroke-width="1.5853018372703411" stroke-linejoin="round" stroke-linecap="butt" d="m19.127008 29.209524l0 0c0 -2.914074 2.35561 -5.2763996 5.2614 -5.2763996l0 0c1.3954105 0 2.7336674 0.5559044 3.7203732 1.5454216c0.9867039 0.9895172 1.5410271 2.3315907 1.5410271 3.730978l0 0c0 2.9140759 -2.355608 5.2763996 -5.2614 5.2763996l0 0c-2.9057903 0 -5.2614 -2.3623238 -5.2614 -5.2763996z" fill-rule="evenodd"/><path fill="#000000" fill-opacity="0.0" d="m49.897488 29.209524l0 0c0 -2.914074 2.35561 -5.2763996 5.2613983 -5.2763996l0 0c1.3954124 0 2.7336693 0.5559044 3.720375 1.5454216c0.98670197 0.9895172 1.5410271 2.3315907 1.5410271 3.730978l0 0c0 2.9140759 -2.35561 5.2763996 -5.261402 5.2763996l0 0c-2.9057884 0 -5.2613983 -2.3623238 -5.2613983 -5.2763996z" fill-rule="evenodd"/><path stroke="#000000" stroke-width="1.5853018372703411" stroke-linejoin="round" stroke-linecap="butt" d="m49.897488 29.209524l0 0c0 -2.914074 2.35561 -5.2763996 5.2613983 -5.2763996l0 0c1.3954124 0 2.7336693 0.5559044 3.720375 1.5454216c0.98670197 0.9895172 1.5410271 2.3315907 1.5410271 3.730978l0 0c0 2.9140759 -2.35561 5.2763996 -5.261402 5.2763996l0 0c-2.9057884 0 -5.2613983 -2.3623238 -5.2613983 -5.2763996z" fill-rule="evenodd"/><path fill="#000000" fill-opacity="0.0" d="m19.67094 59.522385l0 0c0 -2.9140778 2.35561 -5.2764015 5.2614 -5.2764015l0 0c1.3954105 0 2.7336674 0.5559044 3.7203712 1.5454216c0.9867039 0.9895172 1.541029 2.3315926 1.541029 3.73098l0 0c0 2.914074 -2.355608 5.2763977 -5.2614 5.2763977l0 0c-2.9057903 0 -5.2614 -2.3623238 -5.2614 -5.2763977z" fill-rule="evenodd"/><path stroke="#000000" stroke-width="1.5853018372703411" stroke-linejoin="round" stroke-linecap="butt" d="m19.67094 59.522385l0 0c0 -2.9140778 2.35561 -5.2764015 5.2614 -5.2764015l0 0c1.3954105 0 2.7336674 0.5559044 3.7203712 1.5454216c0.9867039 0.9895172 1.541029 2.3315926 1.541029 3.73098l0 0c0 2.914074 -2.355608 5.2763977 -5.2614 5.2763977l0 0c-2.9057903 0 -5.2614 -2.3623238 -5.2614 -5.2763977z" fill-rule="evenodd"/><path fill="#000000" fill-opacity="0.0" d="m49.897488 59.522385l0 0c0 -2.9140778 2.35561 -5.2764015 5.2613983 -5.2764015l0 0c1.3954124 0 2.7336693 0.5559044 3.720375 1.5454216c0.98670197 0.9895172 1.5410271 2.3315926 1.5410271 3.73098l0 0c0 2.914074 -2.35561 5.2763977 -5.261402 5.2763977l0 0c-2.9057884 0 -5.2613983 -2.3623238 -5.2613983 -5.2763977z" fill-rule="evenodd"/><path stroke="#000000" stroke-width="1.5853018372703411" stroke-linejoin="round" stroke-linecap="butt" d="m49.897488 59.522385l0 0c0 -2.9140778 2.35561 -5.2764015 5.2613983 -5.2764015l0 0c1.3954124 0 2.7336693 0.5559044 3.720375 1.5454216c0.98670197 0.9895172 1.5410271 2.3315926 1.5410271 3.73098l0 0c0 2.914074 -2.35561 5.2763977 -5.261402 5.2763977l0 0c-2.9057884 0 -5.2613983 -2.3623238 -5.2613983 -5.2763977z" fill-rule="evenodd"/><path fill="#000000" fill-opacity="0.0" d="m56.15088 44.365955l0 0c0 -2.9140778 2.35561 -5.2764015 5.2613983 -5.2764015l0 0c1.3954124 0 2.7336655 0.5559044 3.720375 1.5454216c0.98670197 0.9895172 1.5410233 2.3315887 1.5410233 3.73098l0 0c0 2.914074 -2.355606 5.2763977 -5.2613983 5.2763977l0 0c-2.9057884 0 -5.2613983 -2.3623238 -5.2613983 -5.2763977z" fill-rule="evenodd"/><path stroke="#000000" stroke-width="1.5853018372703411" stroke-linejoin="round" stroke-linecap="butt" d="m56.15088 44.365955l0 0c0 -2.9140778 2.35561 -5.2764015 5.2613983 -5.2764015l0 0c1.3954124 0 2.7336655 0.5559044 3.720375 1.5454216c0.98670197 0.9895172 1.5410233 2.3315887 1.5410233 3.73098l0 0c0 2.914074 -2.355606 5.2763977 -5.2613983 5.2763977l0 0c-2.9057884 0 -5.2613983 -2.3623238 -5.2613983 -5.2763977z" fill-rule="evenodd"/><path fill="#000000" fill-opacity="0.0" d="m13.417551 44.365955l0 0c0 -2.9140778 2.355609 -5.2764015 5.2614 -5.2764015l0 0c1.3954086 0 2.7336674 0.5559044 3.7203712 1.5454216c0.9867039 0.9895172 1.541029 2.3315887 1.541029 3.73098l0 0c0 2.914074 -2.35561 5.2763977 -5.2614 5.2763977l0 0c-2.9057913 0 -5.2614 -2.3623238 -5.2614 -5.2763977z" fill-rule="evenodd"/><path stroke="#000000" stroke-width="1.5853018372703411" stroke-linejoin="round" stroke-linecap="butt" d="m13.417551 44.365955l0 0c0 -2.9140778 2.355609 -5.2764015 5.2614 -5.2764015l0 0c1.3954086 0 2.7336674 0.5559044 3.7203712 1.5454216c0.9867039 0.9895172 1.541029 2.3315887 1.541029 3.73098l0 0c0 2.914074 -2.35561 5.2763977 -5.2614 5.2763977l0 0c-2.9057913 0 -5.2614 -2.3623238 -5.2614 -5.2763977z" fill-rule="evenodd"/></g></svg>
