<svg height="40" version="1.1" viewBox="0.0 0.0 166.8057742782152 100.0" fill="none" stroke="none" stroke-linecap="square" stroke-miterlimit="10" xmlns:xlink="http://www.w3.org/1999/xlink" xmlns="http://www.w3.org/2000/svg"><clipPath id="p.0"><path d="m0 0l166.80577 0l0 100.0l-166.80577 0l0 -100.0z" clip-rule="nonzero"/></clipPath><g clip-path="url(#p.0)"><path fill="#000000" fill-opacity="0.0" d="m0 0l166.80577 0l0 100.0l-166.80577 0z" fill-rule="evenodd"/><path fill="#000000" fill-opacity="0.0" d="m42.977325 86.62559l0 0c-22.323698 0 -40.42063 -18.772102 -40.42063 -41.92866l0 0c0 -23.156559 18.096933 -41.92866 40.42063 -41.92866l0 0c10.720219 0 21.001362 4.4174714 28.581703 12.280621c7.5803375 7.8631487 11.838928 18.52787 11.838928 29.64804l0 0c0 11.120174 -4.2585907 21.784893 -11.838928 29.648045l11.838928 0l0 12.280617z" fill-rule="evenodd"/><path stroke="#000000" stroke-width="3.41994750656168" stroke-linejoin="round" stroke-linecap="butt" d="m42.977325 86.62559l0 0c-22.323698 0 -40.42063 -18.772102 -40.42063 -41.92866l0 0c0 -23.156559 18.096933 -41.92866 40.42063 -41.92866l0 0c10.720219 0 21.001362 4.4174714 28.581703 12.280621c7.5803375 7.8631487 11.838928 18.52787 11.838928 29.64804l0 0c0 11.120174 -4.2585907 21.784893 -11.838928 29.648045l11.838928 0l0 12.280617z" fill-rule="evenodd"/><path fill="#000000" fill-opacity="0.0" d="m83.39795 2.7682652l40.3937 0l0 0c22.308815 0 40.3937 18.772102 40.3937 41.92866c0 23.156559 -18.084885 41.92866 -40.3937 41.92866l-40.3937 0z" fill-rule="evenodd"/><path stroke="#000000" stroke-width="3.41994750656168" stroke-linejoin="round" stroke-linecap="butt" d="m83.39795 2.7682652l40.3937 0l0 0c22.308815 0 40.3937 18.772102 40.3937 41.92866c0 23.156559 -18.084885 41.92866 -40.3937 41.92866l-40.3937 0z" fill-rule="evenodd"/><path fill="#ffffff" d="m30.859018 44.696926l0 0c0 -6.692646 5.4254627 -12.118111 12.118109 -12.118111l0 0c3.2139244 0 6.2962112 1.2767258 8.568798 3.5493126c2.2725868 2.2725868 3.5493126 5.3548775 3.5493126 8.568798l0 0c0 6.69265 -5.425461 12.118111 -12.118111 12.118111l0 0c-6.692646 0 -12.118109 -5.425461 -12.118109 -12.118111z" fill-rule="evenodd"/><path stroke="#000000" stroke-width="1.7086614173228347" stroke-linejoin="round" stroke-linecap="butt" d="m30.859018 44.696926l0 0c0 -6.692646 5.4254627 -12.118111 12.118109 -12.118111l0 0c3.2139244 0 6.2962112 1.2767258 8.568798 3.5493126c2.2725868 2.2725868 3.5493126 5.3548775 3.5493126 8.568798l0 0c0 6.69265 -5.425461 12.118111 -12.118111 12.118111l0 0c-6.692646 0 -12.118109 -5.425461 -12.118109 -12.118111z" fill-rule="evenodd"/><path fill="#ffffff" d="m36.513577 72.993835l0 0c0 -3.5694122 2.8935776 -6.46299 6.46299 -6.46299l0 0c1.7140923 0 3.3579788 0.68091583 4.5700264 1.8929672c1.2120476 1.2120438 1.8929672 2.8559341 1.8929672 4.5700226l0 0c0 3.5694122 -2.8935814 6.46299 -6.4629936 6.46299l0 0c-3.5694122 0 -6.46299 -2.8935776 -6.46299 -6.46299z" fill-rule="evenodd"/><path stroke="#000000" stroke-width="1.7086614173228347" stroke-linejoin="round" stroke-linecap="butt" d="m36.513577 72.993835l0 0c0 -3.5694122 2.8935776 -6.46299 6.46299 -6.46299l0 0c1.7140923 0 3.3579788 0.68091583 4.5700264 1.8929672c1.2120476 1.2120438 1.8929672 2.8559341 1.8929672 4.5700226l0 0c0 3.5694122 -2.8935814 6.46299 -6.4629936 6.46299l0 0c-3.5694122 0 -6.46299 -2.8935776 -6.46299 -6.46299z" fill-rule="evenodd"/><path fill="#ffffff" d="m36.179768 16.400017l0 0c0 -3.5694113 2.8935776 -6.4629917 6.46299 -6.4629917l0 0c1.7140923 0 3.3579788 0.6809206 4.5700264 1.8929663c1.2120476 1.2120466 1.8929672 2.8559341 1.8929672 4.5700254l0 0c0 3.5694122 -2.8935814 6.4629917 -6.4629936 6.4629917l0 0c-3.5694122 0 -6.46299 -2.8935795 -6.46299 -6.4629917z" fill-rule="evenodd"/><path stroke="#000000" stroke-width="1.7086614173228347" stroke-linejoin="round" stroke-linecap="butt" d="m36.179768 16.400017l0 0c0 -3.5694113 2.8935776 -6.4629917 6.46299 -6.4629917l0 0c1.7140923 0 3.3579788 0.6809206 4.5700264 1.8929663c1.2120476 1.2120466 1.8929672 2.8559341 1.8929672 4.5700254l0 0c0 3.5694122 -2.8935814 6.4629917 -6.4629936 6.4629917l0 0c-3.5694122 0 -6.46299 -2.8935795 -6.46299 -6.4629917z" fill-rule="evenodd"/><path fill="#ffffff" d="m17.264294 26.115824l0 0c0 -3.5694122 2.8935795 -6.4629917 6.4629917 -6.4629917l0 0c1.7140923 0 3.3579788 0.68092155 4.5700264 1.8929672c1.2120457 1.2120457 1.8929653 2.8559322 1.8929653 4.5700245l0 0c0 3.5694122 -2.8935795 6.4629917 -6.4629917 6.4629917l0 0c-3.5694122 0 -6.4629917 -2.8935795 -6.4629917 -6.4629917z" fill-rule="evenodd"/><path stroke="#000000" stroke-width="1.7086614173228347" stroke-linejoin="round" stroke-linecap="butt" d="m17.264294 26.115824l0 0c0 -3.5694122 2.8935795 -6.4629917 6.4629917 -6.4629917l0 0c1.7140923 0 3.3579788 0.68092155 4.5700264 1.8929672c1.2120457 1.2120457 1.8929653 2.8559322 1.8929653 4.5700245l0 0c0 3.5694122 -2.8935795 6.4629917 -6.4629917 6.4629917l0 0c-3.5694122 0 -6.4629917 -2.8935795 -6.4629917 -6.4629917z" fill-rule="evenodd"/><path fill="#ffffff" d="m55.095238 26.115824l0 0c0 -3.5694122 2.8935814 -6.4629917 6.4629936 -6.4629917l0 0c1.7140923 0 3.357975 0.68092155 4.5700264 1.8929672c1.2120438 1.2120457 1.8929672 2.8559322 1.8929672 4.5700245l0 0c0 3.5694122 -2.8935852 6.4629917 -6.4629936 6.4629917l0 0c-3.5694122 0 -6.4629936 -2.8935795 -6.4629936 -6.4629917z" fill-rule="evenodd"/><path stroke="#000000" stroke-width="1.7086614173228347" stroke-linejoin="round" stroke-linecap="butt" d="m55.095238 26.115824l0 0c0 -3.5694122 2.8935814 -6.4629917 6.4629936 -6.4629917l0 0c1.7140923 0 3.357975 0.68092155 4.5700264 1.8929672c1.2120438 1.2120457 1.8929672 2.8559322 1.8929672 4.5700245l0 0c0 3.5694122 -2.8935852 6.4629917 -6.4629936 6.4629917l0 0c-3.5694122 0 -6.4629936 -2.8935795 -6.4629936 -6.4629917z" fill-rule="evenodd"/><path fill="#ffffff" d="m17.933033 63.27803l0 0c0 -3.5694122 2.8935814 -6.4629936 6.4629936 -6.4629936l0 0c1.7140903 0 3.3579788 0.68091965 4.5700245 1.8929672c1.2120457 1.2120476 1.8929672 2.8559341 1.8929672 4.5700264l0 0c0 3.5694122 -2.8935814 6.46299 -6.4629917 6.46299l0 0c-3.5694122 0 -6.4629936 -2.8935776 -6.4629936 -6.46299z" fill-rule="evenodd"/><path stroke="#000000" stroke-width="1.7086614173228347" stroke-linejoin="round" stroke-linecap="butt" d="m17.933033 63.27803l0 0c0 -3.5694122 2.8935814 -6.4629936 6.4629936 -6.4629936l0 0c1.7140903 0 3.3579788 0.68091965 4.5700245 1.8929672c1.2120457 1.2120476 1.8929672 2.8559341 1.8929672 4.5700264l0 0c0 3.5694122 -2.8935814 6.46299 -6.4629917 6.46299l0 0c-3.5694122 0 -6.4629936 -2.8935776 -6.4629936 -6.46299z" fill-rule="evenodd"/><path fill="#ffffff" d="m55.095238 63.27803l0 0c0 -3.5694122 2.8935814 -6.4629936 6.4629936 -6.4629936l0 0c1.7140923 0 3.357975 0.68091965 4.5700264 1.8929672c1.2120438 1.2120476 1.8929672 2.8559341 1.8929672 4.5700264l0 0c0 3.5694122 -2.8935852 6.46299 -6.4629936 6.46299l0 0c-3.5694122 0 -6.4629936 -2.8935776 -6.4629936 -6.46299z" fill-rule="evenodd"/><path stroke="#000000" stroke-width="1.7086614173228347" stroke-linejoin="round" stroke-linecap="butt" d="m55.095238 63.27803l0 0c0 -3.5694122 2.8935814 -6.4629936 6.4629936 -6.4629936l0 0c1.7140923 0 3.357975 0.68091965 4.5700264 1.8929672c1.2120438 1.2120476 1.8929672 2.8559341 1.8929672 4.5700264l0 0c0 3.5694122 -2.8935852 6.46299 -6.4629936 6.46299l0 0c-3.5694122 0 -6.4629936 -2.8935776 -6.4629936 -6.46299z" fill-rule="evenodd"/><path fill="#ffffff" d="m62.783504 44.696926l0 0c0 -3.5694122 2.8935814 -6.46299 6.4629936 -6.46299l0 0c1.7140884 0 3.3579788 0.68091965 4.5700226 1.8929634c1.2120514 1.2120476 1.8929672 2.8559341 1.8929672 4.5700264l0 0c0 3.5694122 -2.8935776 6.4629936 -6.46299 6.4629936l0 0c-3.5694122 0 -6.4629936 -2.8935814 -6.4629936 -6.4629936z" fill-rule="evenodd"/><path stroke="#000000" stroke-width="1.7086614173228347" stroke-linejoin="round" stroke-linecap="butt" d="m62.783504 44.696926l0 0c0 -3.5694122 2.8935814 -6.46299 6.4629936 -6.46299l0 0c1.7140884 0 3.3579788 0.68091965 4.5700226 1.8929634c1.2120514 1.2120476 1.8929672 2.8559341 1.8929672 4.5700264l0 0c0 3.5694122 -2.8935776 6.4629936 -6.46299 6.4629936l0 0c-3.5694122 0 -6.4629936 -2.8935814 -6.4629936 -6.4629936z" fill-rule="evenodd"/><path fill="#ffffff" d="m10.244766 44.696926l0 0c0 -3.5694122 2.8935795 -6.46299 6.4629917 -6.46299l0 0c1.7140923 0 3.3579788 0.68091965 4.5700264 1.8929634c1.2120457 1.2120476 1.8929653 2.8559341 1.8929653 4.5700264l0 0c0 3.5694122 -2.8935795 6.4629936 -6.4629917 6.4629936l0 0c-3.5694122 0 -6.4629917 -2.8935814 -6.4629917 -6.4629936z" fill-rule="evenodd"/><path stroke="#000000" stroke-width="1.7086614173228347" stroke-linejoin="round" stroke-linecap="butt" d="m10.244766 44.696926l0 0c0 -3.5694122 2.8935795 -6.46299 6.4629917 -6.46299l0 0c1.7140923 0 3.3579788 0.68091965 4.5700264 1.8929634c1.2120457 1.2120476 1.8929653 2.8559341 1.8929653 4.5700264l0 0c0 3.5694122 -2.8935795 6.4629936 -6.4629917 6.4629936l0 0c-3.5694122 0 -6.4629917 -2.8935814 -6.4629917 -6.4629936z" fill-rule="evenodd"/></g></svg>
